<svg xmlns="http://www.w3.org/2000/svg" viewBox="0 0 128 128" role="img" aria-label="CasareRPA">
  <defs>
    <linearGradient id="g" x1="0" y1="0" x2="1" y2="1">
      <stop offset="0" stop-color="#0066ff" />
      <stop offset="1" stop-color="#38bdf8" />
    </linearGradient>
  </defs>
  <rect x="8" y="8" width="112" height="112" rx="28" fill="#0f0f0f" stroke="#303030" stroke-width="4" />
  <path d="M88.5 43.5c-6.2-6.2-14.7-10-24.1-10C45.7 33.5 30.5 48.7 30.5 67.4c0 18.7 15.2 33.9 33.9 33.9 9.4 0 17.9-3.8 24.1-10l-10.6-10.6c-3.4 3.4-8 5.6-13.5 5.6-10.5 0-19-8.5-19-19s8.5-19 19-19c5.5 0 10.1 2.2 13.5 5.6L88.5 43.5z" fill="url(#g)" />
</svg>
